# xmcd CD database file
#
# Track frame offsets:
#	150
#	69340
#	74183
#	132093
#	148723
#	185679
#	197774
#	220854
#	235047
#	272860
#	312375
#
# Disc length: 4614 seconds
#
# Revision: 0
# Processed by: cddbd v1.5.2PL0 Copyright (c) Steve Scherf et al.
# Submitted via: CDex 1.70beta2
#
DISCID=b212040b
DTITLE=Club d'Elf - Live 4-20-00 NYC [CD2]
DYEAR=2000
DGENRE=Jazz
TTITLE0=Jungle Adagio
TTITLE1=Outside Voice
TTITLE2=Left Hand Of Clyde
TTITLE3=d'Empty Land Pt. 1
TTITLE4=Invisible Landscape
TTITLE5=d'Empty Land Pt. 2
TTITLE6=Actual SMiles
TTITLE7=Say Yes To The Heavens Pt. 1
TTITLE8=Samba Morocco
TTITLE9=Chapel Perilous
TTITLE10=Say Yes To The Heavens Pt. 2
EXTD=YEAR: 2000
EXTT0=
EXTT1=
EXTT2=
EXTT3=
EXTT4=
EXTT5=
EXTT6=
EXTT7=
EXTT8=
EXTT9=
EXTT10=
PLAYORDER=
